<svg width="1200" height="800" xmlns="http://www.w3.org/2000/svg">
  <defs>
    <style>
      .title { font-family: -apple-system, BlinkMacSystemFont, 'Segoe UI', sans-serif; font-weight: 600; }
      .text { font-family: -apple-system, BlinkMacSystemFont, 'Segoe UI', sans-serif; font-size: 14px; }
      .small { font-size: 12px; }
    </style>
  </defs>
  
  <!-- Background -->
  <rect width="1200" height="800" fill="#f8fafc"/>
  
  <!-- Title Bar -->
  <rect width="1200" height="40" fill="#1e293b"/>
  <text x="20" y="26" class="title" fill="white" font-size="16">TaskFlow</text>
  <circle cx="1140" cy="20" r="6" fill="#ef4444"/>
  <circle cx="1160" cy="20" r="6" fill="#f59e0b"/>
  <circle cx="1180" cy="20" r="6" fill="#10b981"/>
  
  <!-- Sidebar -->
  <rect x="0" y="40" width="280" height="760" fill="#f1f5f9" stroke="#e2e8f0"/>
  
  <!-- Sidebar Header -->
  <text x="20" y="80" class="title" fill="#1e293b" font-size="18">Projects</text>
  <rect x="20" y="100" width="240" height="32" rx="6" fill="#3b82f6"/>
  <text x="30" y="120" class="text" fill="white">+ New Project</text>
  
  <!-- Project List -->
  <rect x="20" y="150" width="240" height="40" rx="8" fill="white" stroke="#e2e8f0"/>
  <circle cx="35" cy="170" r="6" fill="#ef4444"/>
  <text x="50" y="175" class="text" fill="#1e293b">Work Tasks</text>
  <text x="220" y="175" class="small text" fill="#64748b">8</text>
  
  <rect x="20" y="200" width="240" height="40" rx="8" fill="white" stroke="#e2e8f0"/>
  <circle cx="35" cy="220" r="6" fill="#10b981"/>
  <text x="50" y="225" class="text" fill="#1e293b">Personal</text>
  <text x="220" y="225" class="small text" fill="#64748b">3</text>
  
  <rect x="20" y="250" width="240" height="40" rx="8" fill="white" stroke="#e2e8f0"/>
  <circle cx="35" cy="270" r="6" fill="#f59e0b"/>
  <text x="50" y="275" class="text" fill="#1e293b">Learning</text>
  <text x="220" y="275" class="small text" fill="#64748b">5</text>
  
  <!-- Main Content Area -->
  <rect x="280" y="40" width="920" height="760" fill="white"/>
  
  <!-- Header -->
  <text x="320" y="80" class="title" fill="#1e293b" font-size="24">Today's Tasks</text>
  <rect x="1000" y="60" width="120" height="32" rx="6" fill="#3b82f6"/>
  <text x="1020" y="80" class="text" fill="white">+ New Task</text>
  
  <!-- Search Bar -->
  <rect x="320" y="100" width="400" height="40" rx="8" fill="#f8fafc" stroke="#e2e8f0"/>
  <text x="340" y="125" class="text" fill="#64748b">🔍 Search tasks...</text>
  
  <!-- Filter Buttons -->
  <rect x="750" y="105" width="60" height="30" rx="15" fill="#dbeafe" stroke="#3b82f6"/>
  <text x="770" y="125" class="small text" fill="#3b82f6">All</text>
  
  <rect x="820" y="105" width="80" height="30" rx="15" fill="#f1f5f9" stroke="#e2e8f0"/>
  <text x="840" y="125" class="small text" fill="#64748b">Pending</text>
  
  <!-- Task Cards -->
  
  <!-- Task 1 - High Priority -->
  <rect x="320" y="170" width="800" height="100" rx="12" fill="white" stroke="#e2e8f0" stroke-width="1"/>
  <rect x="320" y="170" width="4" height="100" fill="#ef4444"/>
  <circle cx="340" cy="190" r="8" fill="white" stroke="#e2e8f0" stroke-width="2"/>
  <text x="360" y="195" class="title" fill="#1e293b" font-size="16">Complete project proposal</text>
  <rect x="360" y="205" width="50" height="20" rx="10" fill="#fef2f2" stroke="#ef4444"/>
  <text x="375" y="218" class="small text" fill="#ef4444">HIGH</text>
  <rect x="420" y="205" width="80" height="20" rx="10" fill="#eff6ff" stroke="#3b82f6"/>
  <text x="440" y="218" class="small text" fill="#3b82f6">Work Tasks</text>
  <text x="360" y="240" class="text" fill="#64748b">Review requirements and create detailed proposal document</text>
  <text x="1040" y="195" class="small text" fill="#64748b">Due: Today</text>
  <text x="1040" y="250" class="small text" fill="#64748b">Created 2 days ago</text>
  
  <!-- Task 2 - Medium Priority -->
  <rect x="320" y="290" width="800" height="100" rx="12" fill="white" stroke="#e2e8f0" stroke-width="1"/>
  <rect x="320" y="290" width="4" height="100" fill="#f59e0b"/>
  <circle cx="340" cy="310" r="8" fill="white" stroke="#e2e8f0" stroke-width="2"/>
  <text x="360" y="315" class="title" fill="#1e293b" font-size="16">Update portfolio website</text>
  <rect x="360" y="325" width="70" height="20" rx="10" fill="#fefbf2" stroke="#f59e0b"/>
  <text x="375" y="338" class="small text" fill="#f59e0b">MEDIUM</text>
  <rect x="440" y="325" width="70" height="20" rx="10" fill="#f0fdf4" stroke="#10b981"/>
  <text x="455" y="338" class="small text" fill="#10b981">Personal</text>
  <text x="360" y="360" class="text" fill="#64748b">Add new projects and update design portfolio</text>
  <text x="1040" y="315" class="small text" fill="#64748b">Due: Tomorrow</text>
  
  <!-- Task 3 - Completed -->
  <rect x="320" y="410" width="800" height="100" rx="12" fill="#f8fafc" stroke="#e2e8f0" stroke-width="1"/>
  <rect x="320" y="410" width="4" height="100" fill="#10b981"/>
  <circle cx="340" cy="430" r="8" fill="#10b981"/>
  <path d="M336 430 L339 433 L344 427" stroke="white" stroke-width="2" fill="none"/>
  <text x="360" y="435" class="title" fill="#64748b" font-size="16" text-decoration="line-through">Learn React hooks</text>
  <rect x="360" y="445" width="50" height="20" rx="10" fill="#f0fdf4" stroke="#10b981"/>
  <text x="380" y="458" class="small text" fill="#10b981">LOW</text>
  <rect x="420" y="445" width="70" height="20" rx="10" fill="#fef3e2" stroke="#f59e0b"/>
  <text x="440" y="458" class="small text" fill="#f59e0b">Learning</text>
  <text x="360" y="480" class="text" fill="#64748b">Complete online course on React hooks</text>
  <text x="1040" y="435" class="small text" fill="#10b981">✓ Completed</text>
  
  <!-- Stats Section -->
  <rect x="320" y="540" width="800" height="60" rx="12" fill="#f8fafc" stroke="#e2e8f0"/>
  <text x="340" y="565" class="title" fill="#1e293b" font-size="16">Today's Progress</text>
  <text x="340" y="585" class="text" fill="#64748b">1 completed • 2 pending • 0 overdue</text>
  
  <rect x="600" y="550" width="200" height="8" rx="4" fill="#e2e8f0"/>
  <rect x="600" y="550" width="66" height="8" rx="4" fill="#10b981"/>
  <text x="820" y="560" class="text" fill="#64748b">33% complete</text>
</svg>
